<mxfile host="app.diagrams.net" modified="2021-03-13T14:34:29.257Z" agent="5.0 (Macintosh; Intel Mac OS X 10_14_3) AppleWebKit/537.36 (KHTML, like Gecko) Chrome/89.0.4389.82 Safari/537.36" etag="6bTe__Ax8-HE-LKpdyk-" version="14.4.7" type="github">
  <diagram id="3228e29e-7158-1315-38df-8450db1d8a1d" name="Page-1">
    <mxGraphModel dx="2950" dy="3507" grid="1" gridSize="10" guides="1" tooltips="1" connect="1" arrows="1" fold="1" page="1" pageScale="1" pageWidth="1500" pageHeight="800" background="#ffffff" math="0" shadow="1">
      <root>
        <mxCell id="0" />
        <mxCell id="1" parent="0" />
        <mxCell id="TgtEdNx8PUhki9_reYf2-21540" value="李东亚" style="rounded=1;fontSize=50;fontFamily=Helvetica;strokeColor=#b85450;fillColor=#FDD276;labelBackgroundColor=none;labelBorderColor=none;whiteSpace=wrap;html=1;" parent="1" vertex="1">
          <mxGeometry x="1824" y="244" width="171" height="74" as="geometry" />
        </mxCell>
        <mxCell id="TgtEdNx8PUhki9_reYf2-21541" value="健康终结者" style="rounded=1;strokeColor=#457B9D;fontSize=50;fontFamily=Helvetica;fillColor=#4A919B;labelBackgroundColor=none;labelBorderColor=none;whiteSpace=wrap;html=1;" parent="1" vertex="1">
          <mxGeometry x="1995" y="244" width="279" height="73" as="geometry" />
        </mxCell>
        <mxCell id="QOvhmwXTaC0TyrBMlb9O-13" value="李东" style="rounded=1;strokeColor=#b85450;fontSize=50;fontFamily=Helvetica;fillColor=#FDD276;labelBackgroundColor=none;labelBorderColor=none;whiteSpace=wrap;html=1;" parent="1" vertex="1">
          <mxGeometry x="1760" y="674" width="120" height="77" as="geometry" />
        </mxCell>
        <mxCell id="QOvhmwXTaC0TyrBMlb9O-14" value="亚健" style="rounded=1;strokeColor=#457B9D;fontSize=50;fontFamily=Helvetica;fillColor=#4A919B;labelBackgroundColor=none;labelBorderColor=none;whiteSpace=wrap;html=1;" parent="1" vertex="1">
          <mxGeometry x="1910" y="674" width="140" height="77" as="geometry" />
        </mxCell>
        <mxCell id="QOvhmwXTaC0TyrBMlb9O-15" value="康终" style="rounded=1;strokeColor=#b85450;fontSize=50;fontFamily=Helvetica;fillColor=#FDD276;labelBackgroundColor=none;labelBorderColor=none;whiteSpace=wrap;html=1;" parent="1" vertex="1">
          <mxGeometry x="2080" y="674" width="120" height="77" as="geometry" />
        </mxCell>
        <mxCell id="QOvhmwXTaC0TyrBMlb9O-16" value="结者" style="rounded=1;strokeColor=#457B9D;fontSize=50;fontFamily=Helvetica;fillColor=#4A919B;labelBackgroundColor=none;labelBorderColor=none;whiteSpace=wrap;html=1;" parent="1" vertex="1">
          <mxGeometry x="2240" y="674" width="140" height="77" as="geometry" />
        </mxCell>
        <mxCell id="QOvhmwXTaC0TyrBMlb9O-17" value="" style="shape=singleArrow;direction=north;whiteSpace=wrap;html=1;fillColor=#fff2cc;strokeColor=#d6b656;" parent="1" vertex="1">
          <mxGeometry x="1980" y="394" width="138" height="230" as="geometry" />
        </mxCell>
        <mxCell id="QOvhmwXTaC0TyrBMlb9O-18" value="&lt;font style=&quot;font-size: 50px&quot;&gt;合包&lt;/font&gt;" style="text;html=1;strokeColor=none;fillColor=none;align=center;verticalAlign=middle;whiteSpace=wrap;rounded=0;" parent="1" vertex="1">
          <mxGeometry x="2080" y="494" width="150" height="20" as="geometry" />
        </mxCell>
        <mxCell id="QOvhmwXTaC0TyrBMlb9O-19" value="" style="fontColor=#0066CC;verticalAlign=top;verticalLabelPosition=bottom;labelPosition=center;align=center;html=1;outlineConnect=0;fillColor=#CCCCCC;strokeColor=#6881B3;gradientColor=none;gradientDirection=north;strokeWidth=2;shape=mxgraph.networks.mobile;" parent="1" vertex="1">
          <mxGeometry x="2790" y="192" width="110.5" height="221" as="geometry" />
        </mxCell>
        <mxCell id="QOvhmwXTaC0TyrBMlb9O-22" value="&lt;font style=&quot;font-size: 50px&quot;&gt;B&lt;/font&gt;" style="text;html=1;strokeColor=none;fillColor=none;align=center;verticalAlign=middle;whiteSpace=wrap;rounded=0;" parent="1" vertex="1">
          <mxGeometry x="2825" y="293" width="40" height="20" as="geometry" />
        </mxCell>
        <mxCell id="QOvhmwXTaC0TyrBMlb9O-23" value="" style="shape=singleArrow;direction=east;whiteSpace=wrap;html=1;fillColor=#fff2cc;strokeColor=#d6b656;" parent="1" vertex="1">
          <mxGeometry x="2420" y="211.5" width="230" height="138" as="geometry" />
        </mxCell>
        <mxCell id="zzYpkHOlIlI95s7CbFG6-1" value="" style="html=1;outlineConnect=0;fillColor=#CCCCCC;strokeColor=#6881B3;gradientColor=none;gradientDirection=north;strokeWidth=2;shape=mxgraph.networks.cloud;fontColor=#ffffff;" parent="1" vertex="1">
          <mxGeometry x="1870" y="1181" width="342" height="190" as="geometry" />
        </mxCell>
        <mxCell id="zzYpkHOlIlI95s7CbFG6-2" value="&lt;font style=&quot;font-size: 60px&quot;&gt;网络&lt;/font&gt;" style="text;html=1;strokeColor=none;fillColor=none;align=center;verticalAlign=middle;whiteSpace=wrap;rounded=0;" parent="1" vertex="1">
          <mxGeometry x="1960" y="1291" width="189" height="24.5" as="geometry" />
        </mxCell>
        <mxCell id="zzYpkHOlIlI95s7CbFG6-3" value="" style="shape=singleArrow;direction=north;whiteSpace=wrap;html=1;fillColor=#fff2cc;strokeColor=#d6b656;" parent="1" vertex="1">
          <mxGeometry x="1980" y="853" width="138" height="230" as="geometry" />
        </mxCell>
        <mxCell id="zzYpkHOlIlI95s7CbFG6-4" value="&lt;font style=&quot;font-size: 50px&quot;&gt;从网络接收&lt;/font&gt;" style="text;html=1;strokeColor=none;fillColor=none;align=center;verticalAlign=middle;whiteSpace=wrap;rounded=0;" parent="1" vertex="1">
          <mxGeometry x="2080" y="941" width="273.5" height="20" as="geometry" />
        </mxCell>
      </root>
    </mxGraphModel>
  </diagram>
</mxfile>
